<svg width="53" height="53" viewBox="0 0 53 53" fill="none" xmlns="http://www.w3.org/2000/svg">
<g clip-path="url(#clip0_1_13)">
<path d="M13.3604 9.14249L12.4992 8.28124C11.6379 7.41999 10.2467 7.44207 9.4075 8.28124L9.38542 8.30332C8.52417 9.16457 8.52417 10.5558 9.38542 11.395L10.2467 12.2562C11.1079 13.1175 12.4771 13.1175 13.3383 12.2562L13.3604 12.2342C14.2217 11.395 14.2217 9.98165 13.3604 9.14249ZM6.64709 23.1875H4.39459C3.18 23.1875 2.20834 24.1592 2.20834 25.3737V25.3958C2.20834 26.6104 3.18 27.5821 4.39459 27.5821H6.625C7.86167 27.6042 8.83334 26.6325 8.83334 25.4179V25.3958C8.83334 24.1592 7.86167 23.1875 6.64709 23.1875ZM26.5221 1.21457H26.5C25.2633 1.21457 24.2917 2.18624 24.2917 3.40082V5.52082C24.2917 6.7354 25.2633 7.70707 26.4779 7.70707H26.5C27.7367 7.72915 28.7083 6.75749 28.7083 5.5429V3.40082C28.7083 2.18624 27.7367 1.21457 26.5221 1.21457ZM43.6146 8.30332C42.7533 7.44207 41.3621 7.44207 40.5008 8.28124L39.6396 9.14249C38.7783 10.0037 38.7783 11.395 39.6396 12.2342L39.6617 12.2562C40.5229 13.1175 41.9142 13.1175 42.7533 12.2562L43.6146 11.395C44.4758 10.5337 44.4758 9.16457 43.6146 8.30332ZM39.6175 41.6492L40.4788 42.5104C41.34 43.3717 42.7313 43.3717 43.5925 42.5104C44.4538 41.6492 44.4538 40.2579 43.5925 39.3967L42.7313 38.5354C41.87 37.6742 40.4788 37.6962 39.6396 38.5354C38.7563 39.4187 38.7563 40.7879 39.6175 41.6492ZM44.1667 25.3737V25.3958C44.1667 26.6104 45.1383 27.5821 46.3529 27.5821H48.5833C49.7979 27.5821 50.7696 26.6104 50.7696 25.3958V25.3737C50.7696 24.1592 49.7979 23.1875 48.5833 23.1875H46.3529C45.1383 23.1875 44.1667 24.1592 44.1667 25.3737ZM26.5 12.1458C19.1904 12.1458 13.25 18.0862 13.25 25.3958C13.25 32.7054 19.1904 38.6458 26.5 38.6458C33.8096 38.6458 39.75 32.7054 39.75 25.3958C39.75 18.0862 33.8096 12.1458 26.5 12.1458ZM26.4779 49.5771H26.5C27.7146 49.5771 28.6863 48.6054 28.6863 47.3908V45.2708C28.6863 44.0562 27.7146 43.0846 26.5 43.0846H26.4779C25.2633 43.0846 24.2917 44.0562 24.2917 45.2708V47.3908C24.2917 48.6054 25.2633 49.5771 26.4779 49.5771ZM9.38542 42.4883C10.2467 43.3496 11.6379 43.3496 12.4992 42.4883L13.3604 41.6271C14.2217 40.7658 14.1996 39.3746 13.3604 38.5354L13.3383 38.5133C12.4771 37.6521 11.0858 37.6521 10.2246 38.5133L9.36334 39.3746C8.52417 40.2579 8.52417 41.6271 9.38542 42.4883Z" fill="white"/>
</g>
<defs>
<clipPath id="clip0_1_13">
<rect width="53" height="53" fill="white"/>
</clipPath>
</defs>
</svg>
